<svg xmlns="http://www.w3.org/2000/svg" width="80" height="16" viewBox="0 0 80 16" fill="none">
<rect x="20.5" y="1.27922" width="18.4286" height="12.8442" rx="1.95455" fill="white" stroke="#D9D9D9" stroke-width="0.558442"/>
<path fill-rule="evenodd" clip-rule="evenodd" d="M29.8142 10.3983C29.153 10.9556 28.2953 11.2921 27.358 11.2921C25.2668 11.2921 23.5714 9.61691 23.5714 7.5505C23.5714 5.4841 25.2668 3.80894 27.358 3.80894C28.2953 3.80894 29.153 4.1454 29.8142 4.70275C30.4755 4.1454 31.3332 3.80894 32.2704 3.80894C34.3617 3.80894 36.057 5.4841 36.057 7.5505C36.057 9.61691 34.3617 11.2921 32.2704 11.2921C31.3332 11.2921 30.4755 10.9556 29.8142 10.3983Z" fill="#ED0006"/>
<path fill-rule="evenodd" clip-rule="evenodd" d="M29.8142 10.3983C30.6284 9.71198 31.1447 8.69081 31.1447 7.5505C31.1447 6.41019 30.6284 5.38902 29.8142 4.70275C30.4754 4.1454 31.3332 3.80894 32.2704 3.80894C34.3617 3.80894 36.057 5.4841 36.057 7.5505C36.057 9.61691 34.3617 11.2921 32.2704 11.2921C31.3332 11.2921 30.4754 10.9556 29.8142 10.3983Z" fill="#F9A000"/>
<path fill-rule="evenodd" clip-rule="evenodd" d="M29.8142 10.3982C30.6284 9.71197 31.1447 8.69081 31.1447 7.55051C31.1447 6.41021 30.6284 5.38904 29.8142 4.70277C29.0001 5.38904 28.4838 6.41021 28.4838 7.55051C28.4838 8.69081 29.0001 9.71197 29.8142 10.3982Z" fill="#FF5E00"/>
<rect x="60.9416" y="1.27922" width="18.4286" height="12.8442" rx="1.95455" fill="white" stroke="#D9D9D9" stroke-width="0.558442"/>
<path fill-rule="evenodd" clip-rule="evenodd" d="M69.5072 11.7779H70.9569C73.22 11.7779 75.0233 9.98251 75.0941 7.76467V7.72946C75.0587 5.47641 73.22 3.64581 70.9569 3.68101H69.3304C67.1734 3.75142 65.4761 5.58202 65.5468 7.76467C65.5468 9.94731 67.3148 11.7427 69.5072 11.7779ZM66.254 7.72945C66.254 5.89884 67.7745 4.38507 69.6133 4.38507C71.452 4.38507 72.9725 5.89884 72.9725 7.72945C72.9725 9.56005 71.452 11.0738 69.6133 11.0738C67.7745 11.0738 66.254 9.56005 66.254 7.72945ZM70.1437 9.9825V5.5116C71.3813 5.82844 72.1592 7.06058 71.8409 8.29271C71.6288 9.13761 70.9923 9.77128 70.1437 9.9825ZM67.4209 7.16619C67.1027 8.39833 67.8453 9.66567 69.0829 9.9825V5.5116C68.2696 5.72283 67.6331 6.3565 67.4209 7.16619Z" fill="#0079BE"/>
<rect x="0.279221" y="1.27922" width="18.4286" height="12.8442" rx="1.95455" fill="white" stroke="#D9D9D9" stroke-width="0.558442"/>
<path fill-rule="evenodd" clip-rule="evenodd" d="M6.00339 9.8559H4.85315L3.99061 6.46847C3.94967 6.31265 3.86274 6.17489 3.73487 6.10997C3.41576 5.9468 3.06413 5.81695 2.68053 5.75146V5.62105H4.53348C4.78922 5.62105 4.98102 5.81695 5.01298 6.04448L5.46052 8.48795L6.6102 5.62105H7.72848L6.00339 9.8559ZM8.36782 9.8559H7.28151L8.17602 5.62105H9.26233L8.36782 9.8559ZM10.6678 6.79423C10.6997 6.56614 10.8915 6.43573 11.1153 6.43573C11.4669 6.40298 11.85 6.46847 12.1696 6.63107L12.3614 5.71928C12.0418 5.58887 11.6901 5.52338 11.371 5.52338C10.3167 5.52338 9.54947 6.10997 9.54947 6.92408C9.54947 7.54342 10.0929 7.86861 10.4765 8.06452C10.8915 8.25986 11.0514 8.39028 11.0194 8.58562C11.0194 8.87863 10.6997 9.00905 10.3806 9.00905C9.99701 9.00905 9.61341 8.91138 9.26233 8.74822L9.07053 9.66056C9.45413 9.82316 9.86914 9.88865 10.2527 9.88865C11.435 9.92083 12.1696 9.33481 12.1696 8.4552C12.1696 7.34751 10.6678 7.28258 10.6678 6.79423ZM15.9714 9.8559L15.1089 5.62105H14.1824C13.9906 5.62105 13.7988 5.75146 13.7349 5.9468L12.1377 9.8559H13.2559L13.4791 9.23713H14.8532L14.981 9.8559H15.9714ZM14.3422 6.76149L14.6614 8.35754H13.7668L14.3422 6.76149Z" fill="#172B85"/>
<rect x="40" y="1" width="19" height="13.4118" rx="2.23529" fill="#1F72CD"/>
<path fill-rule="evenodd" clip-rule="evenodd" d="M43.4063 5.75L41.6286 9.79965H43.7567L44.0205 9.15397H44.6236L44.8874 9.79965H47.2299V9.30685L47.4386 9.79965H48.6503L48.859 9.29643V9.79965H53.7308L54.3231 9.17074L54.8778 9.79965L57.38 9.80486L55.5967 7.78613L57.38 5.75H54.9166L54.34 6.36729L53.8028 5.75H48.503L48.0479 6.79525L47.5821 5.75H45.4584V6.22604L45.2222 5.75H43.4063ZM43.818 6.32506H44.8554L46.0345 9.07115V6.32506H47.1709L48.0816 8.29399L48.921 6.32506H50.0517V9.23095H49.3637L49.3581 6.95391L48.355 9.23095H47.7396L46.7309 6.95391V9.23095H45.3155L45.0472 8.57949H43.5975L43.3297 9.23038H42.5714L43.818 6.32506ZM53.4787 6.32506H50.6812V9.22924H53.4354L54.3231 8.26675L55.1788 9.22924H56.0732L54.7732 7.78556L56.0732 6.32506H55.2176L54.3344 7.2765L53.4787 6.32506ZM44.3227 6.81672L43.8451 7.97724H44.7997L44.3227 6.81672ZM51.372 7.45719V6.92672V6.92621H53.1176L53.8793 7.77457L53.0839 8.62756H51.372V8.04844H52.8982V7.45719H51.372Z" fill="white"/>
</svg>